<mxfile host="app.diagrams.net" modified="2022-07-12T13:05:24.922Z" agent="5.0 (Windows NT 10.0; Win64; x64) AppleWebKit/537.36 (KHTML, like Gecko) Chrome/103.0.0.0 Safari/537.36" etag="oKKtgZUqH33vJoCC0uFN" version="20.0.3" type="github">
  <diagram id="BDl1mV_CcYpocUGpltEk" name="Page-1">
    <mxGraphModel dx="2272" dy="882" grid="1" gridSize="10" guides="1" tooltips="1" connect="1" arrows="1" fold="1" page="1" pageScale="1" pageWidth="850" pageHeight="1100" math="0" shadow="0">
      <root>
        <mxCell id="0" />
        <mxCell id="1" parent="0" />
        <mxCell id="_5F81OIP83Hevy2MC351-18" style="edgeStyle=orthogonalEdgeStyle;rounded=0;orthogonalLoop=1;jettySize=auto;html=1;" edge="1" parent="1" source="_5F81OIP83Hevy2MC351-1" target="_5F81OIP83Hevy2MC351-9">
          <mxGeometry relative="1" as="geometry" />
        </mxCell>
        <mxCell id="_5F81OIP83Hevy2MC351-1" value="controller" style="rounded=1;whiteSpace=wrap;html=1;" vertex="1" parent="1">
          <mxGeometry x="410" y="370" width="120" height="60" as="geometry" />
        </mxCell>
        <mxCell id="_5F81OIP83Hevy2MC351-3" value="database" style="shape=cylinder3;whiteSpace=wrap;html=1;boundedLbl=1;backgroundOutline=1;size=15;" vertex="1" parent="1">
          <mxGeometry x="810" y="360" width="60" height="80" as="geometry" />
        </mxCell>
        <mxCell id="_5F81OIP83Hevy2MC351-4" value="" style="endArrow=classic;html=1;rounded=0;exitX=1;exitY=0.5;exitDx=0;exitDy=0;" edge="1" parent="1" source="_5F81OIP83Hevy2MC351-1" target="_5F81OIP83Hevy2MC351-5">
          <mxGeometry width="50" height="50" relative="1" as="geometry">
            <mxPoint x="400" y="680" as="sourcePoint" />
            <mxPoint x="440" y="650" as="targetPoint" />
          </mxGeometry>
        </mxCell>
        <mxCell id="_5F81OIP83Hevy2MC351-5" value="repository" style="rounded=1;whiteSpace=wrap;html=1;" vertex="1" parent="1">
          <mxGeometry x="590" y="370" width="120" height="60" as="geometry" />
        </mxCell>
        <mxCell id="_5F81OIP83Hevy2MC351-6" value="" style="endArrow=classic;html=1;rounded=0;exitX=1;exitY=0.5;exitDx=0;exitDy=0;" edge="1" parent="1" source="_5F81OIP83Hevy2MC351-5" target="_5F81OIP83Hevy2MC351-3">
          <mxGeometry width="50" height="50" relative="1" as="geometry">
            <mxPoint x="400" y="680" as="sourcePoint" />
            <mxPoint x="450" y="630" as="targetPoint" />
          </mxGeometry>
        </mxCell>
        <mxCell id="_5F81OIP83Hevy2MC351-17" style="edgeStyle=orthogonalEdgeStyle;rounded=0;orthogonalLoop=1;jettySize=auto;html=1;exitX=1;exitY=0.5;exitDx=0;exitDy=0;" edge="1" parent="1" source="_5F81OIP83Hevy2MC351-7" target="_5F81OIP83Hevy2MC351-1">
          <mxGeometry relative="1" as="geometry" />
        </mxCell>
        <mxCell id="_5F81OIP83Hevy2MC351-7" value="routes" style="rounded=1;whiteSpace=wrap;html=1;" vertex="1" parent="1">
          <mxGeometry x="220" y="370" width="130" height="60" as="geometry" />
        </mxCell>
        <mxCell id="_5F81OIP83Hevy2MC351-9" value="models" style="rounded=1;whiteSpace=wrap;html=1;" vertex="1" parent="1">
          <mxGeometry x="410" y="500" width="120" height="60" as="geometry" />
        </mxCell>
        <mxCell id="_5F81OIP83Hevy2MC351-13" style="edgeStyle=orthogonalEdgeStyle;rounded=0;orthogonalLoop=1;jettySize=auto;html=1;exitX=1;exitY=0.5;exitDx=0;exitDy=0;entryX=0;entryY=0.5;entryDx=0;entryDy=0;" edge="1" parent="1" source="_5F81OIP83Hevy2MC351-11" target="_5F81OIP83Hevy2MC351-12">
          <mxGeometry relative="1" as="geometry" />
        </mxCell>
        <mxCell id="_5F81OIP83Hevy2MC351-11" value="client" style="rounded=1;whiteSpace=wrap;html=1;" vertex="1" parent="1">
          <mxGeometry x="-280" y="570" width="120" height="60" as="geometry" />
        </mxCell>
        <mxCell id="_5F81OIP83Hevy2MC351-15" style="edgeStyle=orthogonalEdgeStyle;rounded=0;orthogonalLoop=1;jettySize=auto;html=1;" edge="1" parent="1" source="_5F81OIP83Hevy2MC351-12" target="_5F81OIP83Hevy2MC351-14">
          <mxGeometry relative="1" as="geometry" />
        </mxCell>
        <mxCell id="_5F81OIP83Hevy2MC351-12" value="middleware" style="rounded=1;whiteSpace=wrap;html=1;" vertex="1" parent="1">
          <mxGeometry x="-100" y="570" width="120" height="60" as="geometry" />
        </mxCell>
        <mxCell id="_5F81OIP83Hevy2MC351-16" style="edgeStyle=orthogonalEdgeStyle;rounded=0;orthogonalLoop=1;jettySize=auto;html=1;exitX=1;exitY=0.5;exitDx=0;exitDy=0;" edge="1" parent="1" source="_5F81OIP83Hevy2MC351-14" target="_5F81OIP83Hevy2MC351-7">
          <mxGeometry relative="1" as="geometry">
            <mxPoint x="280" y="450" as="targetPoint" />
          </mxGeometry>
        </mxCell>
        <mxCell id="_5F81OIP83Hevy2MC351-14" value="api" style="rounded=1;whiteSpace=wrap;html=1;" vertex="1" parent="1">
          <mxGeometry x="80" y="570" width="120" height="60" as="geometry" />
        </mxCell>
      </root>
    </mxGraphModel>
  </diagram>
</mxfile>
